name C:\Users\u0101727\Documents\MyRepositories\upper-imu-dc\Results\main_tracking\Case_41\FLX01_angularVelocities_bodyFrame.mot
datacolumns 4
datarows 141
range 0.51000000 1.91000000
endheader 
time	radius_imu_x	radius_imu_y	radius_imu_z	
          0.51000000	          0.23041642	         -4.59688412	         -0.63742862	
          0.52000000	          0.22597637	         -4.59109137	         -0.65261887	
          0.53000000	          0.22180371	         -4.58246126	         -0.66720813	
          0.54000000	          0.21715984	         -4.57069374	         -0.68176652	
          0.55000000	          0.21128183	         -4.55561382	         -0.69626089	
          0.56000000	          0.20330671	         -4.53721679	         -0.71082844	
          0.57000000	          0.19237170	         -4.51613288	         -0.72567074	
          0.58000000	          0.17860971	         -4.49314769	         -0.74056420	
          0.59000000	          0.16181907	         -4.46991048	         -0.75589187	
          0.60000000	          0.14171031	         -4.44791470	         -0.77229602	
          0.61000000	          0.11893005	         -4.42913434	         -0.78978493	
          0.62000000	          0.09369942	         -4.41501431	         -0.80837516	
          0.63000000	          0.06546416	         -4.40672782	         -0.82840516	
          0.64000000	          0.03323912	         -4.40466422	         -0.85017302	
          0.65000000	         -0.00288518	         -4.40881431	         -0.87329233	
          0.66000000	         -0.04240508	         -4.41891549	         -0.89741568	
          0.67000000	         -0.08479775	         -4.43456540	         -0.92291239	
          0.68000000	         -0.12908997	         -4.45558455	         -0.95047110	
          0.69000000	         -0.17483686	         -4.48095171	         -0.98040406	
          0.70000000	         -0.22210162	         -4.50894735	         -1.01246992	
          0.71000000	         -0.27108312	         -4.53735638	         -1.04619722	
          0.72000000	         -0.32181096	         -4.56386804	         -1.08119100	
          0.73000000	         -0.37395846	         -4.58639832	         -1.11724883	
          0.74000000	         -0.42701531	         -4.60312149	         -1.15430834	
          0.75000000	         -0.48047375	         -4.61248313	         -1.19232137	
          0.76000000	         -0.53389921	         -4.61326655	         -1.23121959	
          0.77000000	         -0.58693051	         -4.60469305	         -1.27092230	
          0.78000000	         -0.63925806	         -4.58651741	         -1.31137288	
          0.79000000	         -0.69060660	         -4.55907482	         -1.35256023	
          0.80000000	         -0.74075124	         -4.52325438	         -1.39452118	
          0.81000000	         -0.78951495	         -4.48043074	         -1.43732245	
          0.82000000	         -0.83677452	         -4.43236800	         -1.48104382	
          0.83000000	         -0.88246588	         -4.38110124	         -1.52575555	
          0.84000000	         -0.92656011	         -4.32882427	         -1.57148839	
          0.85000000	         -0.96904659	         -4.27777766	         -1.61821052	
          0.86000000	         -1.00992105	         -4.23014140	         -1.66580815	
          0.87000000	         -1.04918952	         -4.18793297	         -1.71407898	
          0.88000000	         -1.08688120	         -4.15291596	         -1.76273830	
          0.89000000	         -1.12306909	         -4.12652295	         -1.81143752	
          0.90000000	         -1.15789419	         -4.10979081	         -1.85978950	
          0.91000000	         -1.19158874	         -4.10330566	         -1.90739795	
          0.92000000	         -1.22449483	         -4.10715504	         -1.95389085	
          0.93000000	         -1.25708135	         -4.12087913	         -1.99895224	
          0.94000000	         -1.28995007	         -4.14342209	         -2.04235063	
          0.95000000	         -1.32381054	         -4.17309662	         -2.08396346	
          0.96000000	         -1.35941346	         -4.20757644	         -2.12378781	
          0.97000000	         -1.39744825	         -4.24393689	         -2.16193023	
          0.98000000	         -1.43842692	         -4.27876321	         -2.19857853	
          0.99000000	         -1.48258745	         -4.30833489	         -2.23396562	
          1.00000000	         -1.52984819	         -4.32887715	         -2.26833621	
          1.01000000	         -1.57982271	         -4.33684618	         -2.30192024	
          1.02000000	         -1.63188005	         -4.32919344	         -2.33491319	
          1.03000000	         -1.68522708	         -4.30355694	         -2.36746776	
          1.04000000	         -1.73899068	         -4.25835776	         -2.39969803	
          1.05000000	         -1.79227986	         -4.19281872	         -2.43168732	
          1.06000000	         -1.84422132	         -4.10693573	         -2.46348845	
          1.07000000	         -1.89397559	         -4.00141496	         -2.49511254	
          1.08000000	         -1.94074405	         -3.87757305	         -2.52651185	
          1.09000000	         -1.98377504	         -3.73720064	         -2.55756426	
          1.10000000	         -2.02237531	         -3.58240529	         -2.58806420	
          1.11000000	         -2.05593049	         -3.41545937	         -2.61772153	
          1.12000000	         -2.08393267	         -3.23867381	         -2.64616817	
          1.13000000	         -2.10600898	         -3.05430789	         -2.67297107	
          1.14000000	         -2.12194334	         -2.86451458	         -2.69764883	
          1.15000000	         -2.13168482	         -2.67131417	         -2.71968883	
          1.16000000	         -2.13533784	         -2.47658456	         -2.73856287	
          1.17000000	         -2.13313405	         -2.28205490	         -2.75374083	
          1.18000000	         -2.12539228	         -2.08929249	         -2.76470170	
          1.19000000	         -2.11247677	         -1.89968121	         -2.77094147	
          1.20000000	         -2.09476194	         -1.71439692	         -2.77197846	
          1.21000000	         -2.07260885	         -1.53438677	         -2.76735703	
          1.22000000	         -2.04635601	         -1.36035903	         -2.75665027	
          1.23000000	         -2.01632306	         -1.19279077	         -2.73946461	
          1.24000000	         -1.98282130	         -1.03196011	         -2.71545028	
          1.25000000	         -1.94616312	         -0.87800256	         -2.68431558	
          1.26000000	         -1.90667691	         -0.73097380	         -2.64582609	
          1.27000000	         -1.86472468	         -0.59090372	         -2.59979145	
          1.28000000	         -1.82068509	         -0.45786924	         -2.54609007	
          1.29000000	         -1.77493198	         -0.33199969	         -2.48462675	
          1.30000000	         -1.72784174	         -0.21346685	         -2.41530740	
          1.31000000	         -1.67980723	         -0.10247943	         -2.33808655	
          1.32000000	         -1.63123949	          0.00075761	         -2.25295332	
          1.33000000	         -1.58256680	          0.09607282	         -2.15992961	
          1.34000000	         -1.53423876	          0.18336728	         -2.05909743	
          1.35000000	         -1.48675737	          0.26257337	         -1.95061204	
          1.36000000	         -1.44066214	          0.33388425	         -1.83471142	
          1.37000000	         -1.39677223	          0.39674494	         -1.71166719	
          1.38000000	         -1.35567913	          0.45277534	         -1.58151448	
          1.39000000	         -1.30740663	          0.51210131	         -1.45037632	
          1.40000000	         -1.26746001	          0.56139932	         -1.31002086	
          1.41000000	         -1.23813196	          0.58777824	         -1.16454108	
          1.42000000	         -1.20376573	          0.63941500	         -1.01765776	
          1.43000000	         -1.17543628	          0.65624794	         -0.87637647	
          1.44000000	         -1.14808734	          0.67954790	         -0.73567375	
          1.45000000	         -1.12028060	          0.70013858	         -0.59563426	
          1.46000000	         -1.09774121	          0.72103268	         -0.45290563	
          1.47000000	         -1.08657880	          0.74497478	         -0.30412091	
          1.48000000	         -1.08815371	          0.77382557	         -0.14767482	
          1.49000000	         -1.12048216	          0.79873949	          0.01038228	
          1.50000000	         -1.14509755	          0.84026071	          0.16173641	
          1.51000000	         -1.17407913	          0.86713323	          0.29820693	
          1.52000000	         -1.20118218	          0.88934334	          0.42115846	
          1.53000000	         -1.22700732	          0.90300632	          0.53224900	
          1.54000000	         -1.25148059	          0.90855703	          0.63350765	
          1.55000000	         -1.27488876	          0.90564316	          0.72655481	
          1.56000000	         -1.29728050	          0.89446251	          0.81264915	
          1.57000000	         -1.31859956	          0.87549182	          0.89271861	
          1.58000000	         -1.33874569	          0.84961661	          0.96746312	
          1.59000000	         -1.35762920	          0.81808365	          1.03739632	
          1.60000000	         -1.37520652	          0.78241987	          1.10289090	
          1.61000000	         -1.39147591	          0.74428839	          1.16420812	
          1.62000000	         -1.40649347	          0.70532435	          1.22151588	
          1.63000000	         -1.42038413	          0.66696878	          1.27490460	
          1.64000000	         -1.43331673	          0.63033020	          1.32439965	
          1.65000000	         -1.44547378	          0.59610654	          1.36997317	
          1.66000000	         -1.45703416	          0.56457209	          1.41155082	
          1.67000000	         -1.46816363	          0.53560822	          1.44901484	
          1.68000000	         -1.47899837	          0.50875672	          1.48220967	
          1.69000000	         -1.48962541	          0.48329379	          1.51095258	
          1.70000000	         -1.50006771	          0.45832814	          1.53504821	
          1.71000000	         -1.51027823	          0.43291370	          1.55430444	
          1.72000000	         -1.52014314	          0.40615923	          1.56854787	
          1.73000000	         -1.52949276	          0.37732127	          1.57763609	
          1.74000000	         -1.53811725	          0.34587730	          1.58146578	
          1.75000000	         -1.54578501	          0.31157920	          1.57997707	
          1.76000000	         -1.55226204	          0.27448442	          1.57315492	
          1.77000000	         -1.55733190	          0.23496104	          1.56102842	
          1.78000000	         -1.56081619	          0.19366430	          1.54366849	
          1.79000000	         -1.56259486	          0.15148335	          1.52118359	
          1.80000000	         -1.56262300	          0.10946044	          1.49371398	
          1.81000000	         -1.56094050	          0.06869303	          1.46142551	
          1.82000000	         -1.55767108	          0.03023608	          1.42450448	
          1.83000000	         -1.55301070	         -0.00497506	          1.38315479	
          1.84000000	         -1.54720764	         -0.03616591	          1.33759795	
          1.85000000	         -1.54053930	         -0.06272509	          1.28807531	
          1.86000000	         -1.53328687	         -0.08418264	          1.23484456	
          1.87000000	         -1.52570651	         -0.10018788	          1.17817906	
          1.88000000	         -1.51802638	         -0.11048734	          1.11837538	
          1.89000000	         -1.51041516	         -0.11492442	          1.05576350	
          1.90000000	         -1.50294565	         -0.11344340	          0.99068835	
          1.91000000	         -1.49563684	         -0.10608649	          0.92350176	
